<svg width="255" height="96" viewBox="0 0 255 96" fill="none" xmlns="http://www.w3.org/2000/svg">
<path d="M14.269 77.9999L21.7524 66.1135H19.3918L15.5581 72.1739L11.5569 66.1135H8.92847L14.2857 74.2163L11.8917 77.9999H14.269Z" fill="#DCAD59"/>
<path d="M23.526 77.9999H29.9882C32.7338 77.9999 34.1401 76.6773 34.1401 74.6014C34.1401 73.0444 33.1858 72.0902 32.0809 71.7386C32.9849 71.4205 33.8722 70.6337 33.8722 69.3278C33.8722 67.3189 32.4827 66.1135 29.8878 66.1135H23.526V77.9999ZM29.6366 68.022C30.909 68.022 31.5619 68.474 31.5619 69.4785C31.5619 70.4495 30.9257 70.935 29.6366 70.935H25.7359V68.022H29.6366ZM29.7203 72.8268C31.1434 72.8268 31.8465 73.3625 31.8465 74.4507C31.8465 75.5222 31.1768 76.0914 29.7203 76.0914H25.7359V72.8268H29.7203Z" fill="#DCAD59"/>
<path d="M36.8178 77.9999H39.0611L45.7577 69.1269V77.9999H48.001V66.1135H45.7577L39.0611 74.9864V66.1135H36.8178V77.9999Z" fill="#DCAD59"/>
<path d="M59.4899 75.9909H53.3124C53.6974 75.2543 53.9653 74.0991 54.1494 72.3748L54.6182 68.1225H59.4899V75.9909ZM52.7264 66.1135L52.0567 72.2576C51.8559 74.0154 51.521 75.2543 51.069 75.9909H49.7799V80.6952H51.8056V77.9999H61.4989V80.6952H63.5079V75.9909H61.7333V66.1135H52.7264Z" fill="#DCAD59"/>
<path d="M65.4285 77.9999H67.6719L74.3684 69.1269V77.9999H76.6118V66.1135H74.3684L67.6719 74.9864V66.1135H65.4285V77.9999Z" fill="#DCAD59"/>
<path d="M83.2624 66.1135H79.8974V77.9999H81.9733V68.3401L85.9243 78.0501H87.4478L91.4322 68.2564V77.9999H93.6086V66.1135H90.3775L86.8116 74.7688L83.2624 66.1135Z" fill="#DCAD59"/>
<path d="M102.225 78.2008C106.042 78.2008 107.498 75.5891 107.766 74.3335H105.489C105.188 74.9529 104.284 76.1416 102.225 76.1416C99.9983 76.1416 98.5585 74.2833 98.5585 72.0567C98.5585 69.8301 99.9983 67.9718 102.225 67.9718C104.133 67.9718 105.104 69.1437 105.456 69.7631H107.766C107.448 68.3736 105.891 65.9126 102.225 65.9126C98.7427 65.9126 96.2315 68.5745 96.2315 72.0567C96.2315 75.5389 98.7427 78.2008 102.225 78.2008Z" fill="#DCAD59"/>
<path d="M112.031 77.9999L114.76 73.4295H118.443V77.9999H120.686V66.1135H114.073C111.445 66.1135 109.972 67.3691 109.972 69.8301C109.972 71.5544 110.876 72.6929 112.533 73.1449L109.603 77.9999H112.031ZM114.258 71.4875C112.935 71.4875 112.282 70.935 112.282 69.8301C112.282 68.6247 112.918 68.089 114.258 68.089H118.443V71.4875H114.258Z" fill="#DCAD59"/>
<path d="M137.063 77.9999H139.323V66.1135H137.063V71.0187H130.534V66.1135H128.29V77.9999H130.534V73.0277H137.063V77.9999Z" fill="#DCAD59"/>
<path d="M151.787 77.9999H154.181L148.824 66.0633H146.698L141.357 77.9999H143.617L144.706 75.5556H150.699L151.787 77.9999ZM145.559 73.6136L147.702 68.8089L149.845 73.6136H145.559Z" fill="#DCAD59"/>
<path d="M160.547 77.9999H162.79L169.487 69.1269V77.9999H171.73V66.1135H169.487L162.79 74.9864V66.1135H160.547V77.9999Z" fill="#DCAD59"/>
<path d="M183.788 77.9999H186.048V66.1135H183.788V71.0187H177.259V66.1135H175.016V77.9999H177.259V73.0277H183.788V77.9999Z" fill="#DCAD59"/>
<path d="M189.305 77.9999H195.767C198.513 77.9999 199.919 76.6773 199.919 74.6014C199.919 73.0444 198.965 72.0902 197.86 71.7386C198.764 71.4205 199.651 70.6337 199.651 69.3278C199.651 67.3189 198.262 66.1135 195.667 66.1135H189.305V77.9999ZM195.416 68.022C196.688 68.022 197.341 68.474 197.341 69.4785C197.341 70.4495 196.705 70.935 195.416 70.935H191.515V68.022H195.416ZM195.499 72.8268C196.922 72.8268 197.625 73.3625 197.625 74.4507C197.625 75.5222 196.956 76.0914 195.499 76.0914H191.515V72.8268H195.499Z" fill="#DCAD59"/>
<path d="M202.597 77.9999H212.893V76.0077H204.84V72.7263H209.243V70.7676H204.84V68.0555H212.223V66.1135H202.597V77.9999Z" fill="#DCAD59"/>
<path d="M220.036 78.2008C223.853 78.2008 225.309 75.5891 225.577 74.3335H223.3C222.999 74.9529 222.095 76.1416 220.036 76.1416C217.809 76.1416 216.369 74.2833 216.369 72.0567C216.369 69.8301 217.809 67.9718 220.036 67.9718C221.944 67.9718 222.915 69.1437 223.267 69.7631H225.577C225.259 68.3736 223.702 65.9126 220.036 65.9126C216.554 65.9126 214.042 68.5745 214.042 72.0567C214.042 75.5389 216.554 78.2008 220.036 78.2008Z" fill="#DCAD59"/>
<path d="M227.096 68.1225H231.817V77.9999H234.061V68.1225H238.782V66.1135H227.096V68.1225Z" fill="#DCAD59"/>
<path d="M239.489 73.9987H245.064V72.0232H239.489V73.9987Z" fill="#DCAD59"/>
<path d="M71.7854 83.1135H68.4204V94.9999H70.4963V85.3401L74.4473 95.0501H75.9708L79.9552 85.2564V94.9999H82.1316V83.1135H78.9005L75.3346 91.7688L71.7854 83.1135Z" fill="#DCAD59"/>
<path d="M94.5984 94.9999H96.9924L91.6352 83.0633H89.509L84.1685 94.9999H86.4286L87.5168 92.5556H93.5102L94.5984 94.9999ZM88.3706 90.6136L90.5135 85.8089L92.6564 90.6136H88.3706Z" fill="#DCAD59"/>
<path d="M99.0421 94.9999H101.285V90.4462H105.605C108.283 90.4462 109.757 89.0399 109.757 86.7464C109.757 84.3858 108.283 83.1135 105.605 83.1135H99.0421V94.9999ZM105.488 85.1225C106.827 85.1225 107.446 85.7084 107.446 86.7799C107.446 87.7843 106.81 88.4373 105.488 88.4373H101.285V85.1225H105.488Z" fill="#DCAD59"/>
<path d="M120.217 94.9999H122.611L117.254 83.0633H115.128L109.787 94.9999H112.048L113.136 92.5556H119.129L120.217 94.9999ZM113.99 90.6136L116.132 85.8089L118.275 90.6136H113.99Z" fill="#DCAD59"/>
<path d="M130.635 93.0077V95.1673H132.862V93.0077H135.59C138.604 93.0077 140.178 91.4507 140.178 88.8893C140.178 86.2609 138.604 84.8379 135.59 84.8379H132.862V82.9461H130.635V84.8379H127.889C124.893 84.8379 123.302 86.2609 123.302 88.8893C123.302 91.4507 124.893 93.0077 127.906 93.0077H130.635ZM130.635 90.9987H128.007C126.399 90.9987 125.613 90.1784 125.613 88.9228C125.613 87.5667 126.399 86.8301 128.007 86.8301H130.635V90.9987ZM135.473 86.8301C137.097 86.8301 137.867 87.5667 137.867 88.9228C137.867 90.1784 137.08 90.9987 135.473 90.9987H132.862V86.8301H135.473Z" fill="#DCAD59"/>
<path d="M148.384 95.2008C151.916 95.2008 154.611 92.6059 154.611 89.0567C154.611 85.4908 151.916 82.9126 148.384 82.9126C144.851 82.9126 142.156 85.4908 142.156 89.0567C142.156 92.6226 144.818 95.2008 148.384 95.2008ZM148.384 93.1583C146.006 93.1583 144.466 91.3503 144.466 89.0567C144.466 86.7966 146.023 84.955 148.384 84.955C150.744 84.955 152.318 86.7966 152.318 89.0567C152.318 91.3335 150.744 93.1583 148.384 93.1583Z" fill="#DCAD59"/>
<path d="M166.033 94.9999H168.293V83.1135H166.033V88.0187H159.504V83.1135H157.261V94.9999H159.504V90.0277H166.033V94.9999Z" fill="#DCAD59"/>
<path d="M171.55 94.9999H181.846V93.0077H173.793V89.7263H178.196V87.7676H173.793V85.0555H181.176V83.1135H171.55V94.9999Z" fill="#DCAD59"/>
<path d="M184.289 91.0657H186.415V83.1135H184.289V91.0657ZM184.072 94.9999H186.633V92.338H184.072V94.9999Z" fill="#DCAD59"/>
<path d="M95.0327 29.0002H106.759C111.741 29.0002 114.293 26.6003 114.293 22.8334C114.293 20.0082 112.561 18.2766 110.556 17.6386C112.197 17.0614 113.807 15.6337 113.807 13.2641C113.807 9.61871 111.285 7.43145 106.577 7.43145H95.0327V29.0002ZM106.121 10.8946C108.43 10.8946 109.614 11.7148 109.614 13.5375C109.614 15.2995 108.46 16.1805 106.121 16.1805H99.0427V10.8946H106.121ZM106.273 19.6132C108.855 19.6132 110.131 20.5853 110.131 22.56C110.131 24.5042 108.916 25.537 106.273 25.537H99.0427V19.6132H106.273Z" fill="#DCAD59"/>
<path d="M128.717 29.3647C135.644 29.3647 138.286 24.6257 138.773 22.3473H134.641C134.094 23.4713 132.454 25.6282 128.717 25.6282C124.677 25.6282 122.064 22.2562 122.064 18.2158C122.064 14.1755 124.677 10.8035 128.717 10.8035C132.18 10.8035 133.942 12.93 134.58 14.054H138.773C138.195 11.5326 135.37 7.06691 128.717 7.06691C122.399 7.06691 117.842 11.8971 117.842 18.2158C117.842 24.5346 122.399 29.3647 128.717 29.3647Z" fill="#DCAD59"/>
<path d="M143.078 29.0002H161.761V25.3852H147.149V19.431H155.139V15.8767H147.149V10.9554H160.546V7.43145H143.078V29.0002ZM146.845 5.51761H150.703V0.991211H146.845V5.51761ZM153.559 5.51761H157.417V0.991211H153.559V5.51761Z" fill="#DCAD59"/>
<path d="M0.395386 56.0002H4.46611V38.0769H16.0099V56.0002H20.0807V34.4315H0.395386V56.0002Z" fill="#DCAD59"/>
<path d="M35.8699 56.3647C42.2798 56.3647 47.1707 51.6561 47.1707 45.2158C47.1707 38.7452 42.2798 34.0669 35.8699 34.0669C29.46 34.0669 24.5691 38.7452 24.5691 45.2158C24.5691 51.6864 29.3993 56.3647 35.8699 56.3647ZM35.8699 52.6586C31.5561 52.6586 28.7613 49.3777 28.7613 45.2158C28.7613 41.1147 31.5865 37.7731 35.8699 37.7731C40.1533 37.7731 43.0088 41.1147 43.0088 45.2158C43.0088 49.3473 40.1533 52.6586 35.8699 52.6586Z" fill="#DCAD59"/>
<path d="M57.9432 38.0769H66.996V56.0002H71.0667V34.4315H54.48L53.2953 46.7347C52.9004 50.7447 52.232 52.2029 49.8625 52.2029H49.3765V56.2128H50.0144C55.2395 56.2128 56.4546 53.2054 57.0926 47.0993L57.9432 38.0769Z" fill="#DCAD59"/>
<path d="M84.0272 56.0002L97.6064 34.4315H93.323L86.3663 45.4285L79.1059 34.4315H74.3364L84.0575 49.1347L79.7134 56.0002H84.0272Z" fill="#DCAD59"/>
<path d="M115.315 56.0002H119.386V34.4315H115.315V44.0007C114.708 44.1526 114.07 44.2437 113.371 44.3348C112.186 44.4867 110.576 44.6386 108.875 44.6386C105.625 44.6386 104.045 43.4539 104.045 39.9603V34.4315H99.9742V40.0211C99.9742 45.9449 102.982 48.1929 108.693 48.1929C110.394 48.1929 112.065 48.041 113.28 47.8891C113.979 47.798 114.677 47.7069 115.315 47.5854V56.0002Z" fill="#DCAD59"/>
<path d="M125.048 56.0002H129.119L141.27 39.8996V56.0002H145.341V34.4315H141.27L129.119 50.5321V34.4315H125.048V56.0002Z" fill="#DCAD59"/>
<path d="M157.713 38.0769H166.766V56.0002H170.836V34.4315H154.25L153.065 46.7347C152.67 50.7447 152.002 52.2029 149.632 52.2029H149.146V56.2128H149.784C155.009 56.2128 156.224 53.2054 156.862 47.0993L157.713 38.0769Z" fill="#DCAD59"/>
<path d="M186.622 56.3647C193.032 56.3647 197.923 51.6561 197.923 45.2158C197.923 38.7452 193.032 34.0669 186.622 34.0669C180.212 34.0669 175.321 38.7452 175.321 45.2158C175.321 51.6864 180.151 56.3647 186.622 56.3647ZM186.622 52.6586C182.308 52.6586 179.513 49.3777 179.513 45.2158C179.513 41.1147 182.339 37.7731 186.622 37.7731C190.905 37.7731 193.761 41.1147 193.761 45.2158C193.761 49.3473 190.905 52.6586 186.622 52.6586Z" fill="#DCAD59"/>
<path d="M212.148 56.3647C219.074 56.3647 221.717 51.6257 222.203 49.3473H218.072C217.525 50.4713 215.884 52.6282 212.148 52.6282C208.107 52.6282 205.495 49.2562 205.495 45.2158C205.495 41.1755 208.107 37.8035 212.148 37.8035C215.611 37.8035 217.373 39.93 218.011 41.054H222.203C221.626 38.5326 218.801 34.0669 212.148 34.0669C205.829 34.0669 201.272 38.8971 201.272 45.2158C201.272 51.5346 205.829 56.3647 212.148 56.3647Z" fill="#DCAD59"/>
<path d="M230.579 41.9349V34.4315H226.509V56.0002H238.022C243.126 56.0002 245.89 53.5395 245.89 49.0131C245.89 44.6083 243.126 41.9349 238.022 41.9349H230.579ZM237.81 45.5804C240.453 45.5804 241.698 46.917 241.698 48.9828C241.698 51.17 240.453 52.3852 237.81 52.3852H230.579V45.5804H237.81Z" fill="#DCAD59"/>
<path d="M250.449 48.8612H254.307V34.4315H250.449V48.8612ZM250.054 56.0002H254.702V51.17H250.054V56.0002Z" fill="#DCAD59"/>
<path d="M85.1945 8L85.1945 12.0437L64.1671 12.0437L64.1671 8L85.1945 8Z" fill="black"/>
<path d="M80.6532 9.61719L83.5125 12.4765L66.8594 29.1297L64.0001 26.2703L80.6532 9.61719Z" fill="black"/>
<path d="M81.1506 8L85.1944 8L85.1944 29.0273L81.1506 29.0273L81.1506 8Z" fill="black"/>
<path d="M190.194 8L190.194 12.0437L169.167 12.0437L169.167 8L190.194 8Z" fill="black"/>
<path d="M185.653 9.61719L188.513 12.4765L171.859 29.1297L169 26.2703L185.653 9.61719Z" fill="black"/>
<path d="M186.151 8L190.194 8L190.194 29.0273L186.151 29.0273L186.151 8Z" fill="black"/>
</svg>
