<svg width="239" height="91" viewBox="0 0 239 91" fill="none" xmlns="http://www.w3.org/2000/svg">
<path d="M2.05036 26H15.9464C21.8504 26 24.8744 23.156 24.8744 18.692C24.8744 15.344 22.8224 13.292 20.4464 12.536C22.3904 11.852 24.2984 10.16 24.2984 7.35203C24.2984 3.03203 21.3104 0.440032 15.7304 0.440032H2.05036V26ZM15.1904 4.54403C17.9264 4.54403 19.3304 5.51603 19.3304 7.67603C19.3304 9.76403 17.9624 10.808 15.1904 10.808H6.80236V4.54403H15.1904ZM15.3704 14.876C18.4304 14.876 19.9424 16.028 19.9424 18.368C19.9424 20.672 18.5024 21.896 15.3704 21.896H6.80236V14.876H15.3704Z" fill="white"/>
<path d="M49.3693 26H54.5173L42.9973 0.332031H38.4253L26.9413 26H31.8013L34.1413 20.744H47.0293L49.3693 26ZM35.9773 16.568L40.5853 6.23603L45.1933 16.568H35.9773Z" fill="white"/>
<path d="M66.5207 4.76003H77.2487V26H82.0727V0.440032H62.4167L61.0127 15.02C60.5447 19.772 59.7527 21.5 56.9447 21.5H56.3687V26.252H57.1247C63.3167 26.252 64.7567 22.688 65.5127 15.452L66.5207 4.76003Z" fill="white"/>
<path d="M88.7555 26H110.896V21.716H93.5795V14.66H103.048V10.448H93.5795V4.61603H109.456V0.440032H88.7555V26Z" fill="white"/>
<path d="M115.466 26H120.29V16.208H129.578C135.338 16.208 138.506 13.184 138.506 8.25203C138.506 3.17603 135.338 0.440032 129.578 0.440032H115.466V26ZM129.326 4.76003C132.206 4.76003 133.538 6.02003 133.538 8.32403C133.538 10.484 132.17 11.888 129.326 11.888H120.29V4.76003H129.326Z" fill="white"/>
<path d="M143.547 26H148.371L162.771 6.92003V26H167.595V0.440032H162.771L148.371 19.52V0.440032H143.547V26Z" fill="white"/>
<path d="M178.009 26L183.877 16.172H191.797V26H196.621V0.440032H182.401C176.749 0.440032 173.581 3.14003 173.581 8.43203C173.581 12.14 175.525 14.588 179.089 15.56L172.789 26H178.009ZM182.797 11.996C179.953 11.996 178.549 10.808 178.549 8.43203C178.549 5.84003 179.917 4.68803 182.797 4.68803H191.797V11.996H182.797Z" fill="white"/>
<path d="M212.252 26H217.076L231.476 6.92003V26H236.3V0.440032H231.476L217.076 19.52V0.440032H212.252V26Z" fill="white"/>
<path d="M68.7319 58H73.8799L62.3599 32.332H57.7879L46.3039 58H51.1639L53.5039 52.744H66.3919L68.7319 58ZM55.3399 48.568L59.9479 38.236L64.5559 48.568H55.3399Z" fill="white"/>
<path d="M77.9274 58H82.7514V48.208H92.0394C97.7994 48.208 100.967 45.184 100.967 40.252C100.967 35.176 97.7994 32.44 92.0394 32.44H77.9274V58ZM91.7874 36.76C94.6674 36.76 95.9994 38.02 95.9994 40.324C95.9994 42.484 94.6314 43.888 91.7874 43.888H82.7514V36.76H91.7874Z" fill="white"/>
<path d="M103.637 36.76H113.789V58H118.613V36.76H128.765V32.44H103.637V36.76Z" fill="white"/>
<path d="M133.282 58H155.422V53.716H138.106V46.66H147.574V42.448H138.106V36.616H153.982V32.44H133.282V58Z" fill="white"/>
<path d="M167.228 32.44H159.992V58H164.456V37.228L172.952 58.108H176.228L184.796 37.048V58H189.476V32.44H182.528L174.86 51.052L167.228 32.44Z" fill="white"/>
<path d="M18.6071 90H23.4311V64.44H18.6071V75.78C17.8871 75.96 17.1311 76.068 16.3031 76.176C14.8991 76.356 12.9911 76.536 10.9751 76.536C7.12312 76.536 5.25113 75.132 5.25113 70.992V64.44H0.427124V71.064C0.427124 78.084 3.99112 80.748 10.7591 80.748C12.7751 80.748 14.7551 80.568 16.1951 80.388C17.0231 80.28 17.8511 80.172 18.6071 80.028V90Z" fill="white"/>
<path d="M30.1409 90H52.2809V85.716H34.9649V78.66H44.4329V74.448H34.9649V68.616H50.8409V64.44H30.1409V90Z" fill="white"/>
<path d="M56.8512 90H61.6752V78.3L75.2112 90H81.9432L67.0392 76.86L81.3312 64.44H74.8512L61.6752 75.924V64.44H56.8512V90Z" fill="white"/>
<path d="M104.979 90H110.127L98.6067 64.332H94.0347L82.5507 90H87.4107L89.7507 84.744H102.639L104.979 90ZM91.5867 80.568L96.1947 70.236L100.803 80.568H91.5867Z" fill="white"/>
<path d="M122.13 68.76H132.858V90H137.682V64.44H118.026L116.622 79.02C116.154 83.772 115.362 85.5 112.554 85.5H111.978V90.252H112.734C118.926 90.252 120.366 86.688 121.122 79.452L122.13 68.76Z" fill="white"/>
<path d="M144.365 90H149.189L163.589 70.92V90H168.413V64.44H163.589L149.189 83.52V64.44H144.365V90Z" fill="white"/>
<path d="M193.982 90H198.842V64.44H193.982V74.988H179.942V64.44H175.118V90H179.942V79.308H193.982V90Z" fill="white"/>
<path d="M210.309 73.332V64.44H205.485V90H219.129C225.177 90 228.453 87.084 228.453 81.72C228.453 76.5 225.177 73.332 219.129 73.332H210.309ZM218.877 77.652C222.009 77.652 223.485 79.236 223.485 81.684C223.485 84.276 222.009 85.716 218.877 85.716H210.309V77.652H218.877ZM232.053 90H236.913V64.44H232.053V90Z" fill="white"/>
<path d="M26.2065 32L26.2065 36.8092L1.19866 36.8092L1.19866 32L26.2065 32Z" fill="black"/>
<path d="M20.8057 33.9238L24.2063 37.3245L4.40065 57.1301L1.00002 53.7295L20.8057 33.9238Z" fill="black"/>
<path d="M21.3973 32L26.2065 32L26.2065 57.0079L21.3973 57.0079L21.3973 32Z" fill="black"/>
<path d="M238.207 32L238.207 36.8092L213.199 36.8092L213.199 32L238.207 32Z" fill="black"/>
<path d="M232.806 33.9238L236.206 37.3245L216.401 57.1301L213 53.7295L232.806 33.9238Z" fill="black"/>
<path d="M233.397 32L238.207 32L238.207 57.0079L233.397 57.0079L233.397 32Z" fill="black"/>
</svg>
