<svg width="277" height="99" viewBox="0 0 277 99" fill="none" xmlns="http://www.w3.org/2000/svg">
<path d="M19.9 97H25.252C27.232 97 28.264 96.052 28.264 94.576C28.264 93.436 27.616 92.752 26.896 92.488C27.472 92.236 28.036 91.672 28.036 90.796C28.036 89.416 27.04 88.48 25.18 88.48H19.9V97ZM24.7 90.4C25.216 90.4 25.528 90.568 25.528 91.036C25.528 91.504 25.216 91.672 24.7 91.672H22.312V90.4H24.7ZM24.736 93.592C25.396 93.592 25.744 93.82 25.744 94.336C25.744 94.852 25.396 95.08 24.736 95.08H22.312V93.592H24.736Z" fill="#EF3124"/>
<path d="M33.4775 88.48H29.9135V97H32.1695V91.228L34.2575 97H35.8895L38.0135 91.18V97H40.4135V88.48H37.0055L35.2415 93.208L33.4775 88.48Z" fill="#EF3124"/>
<path d="M42.4581 97H50.2701V94.912H44.9181V93.604H47.8221V91.576H44.9181V90.46H49.8021V88.48H42.4581V97Z" fill="#EF3124"/>
<path d="M55.5552 97.144C58.5792 97.144 59.4912 94.948 59.6352 94.156H57.1512C57.0192 94.36 56.5872 94.948 55.5552 94.948C54.3432 94.948 53.6232 93.952 53.6232 92.74C53.6232 91.528 54.3432 90.532 55.5552 90.532C56.5632 90.532 57.0072 91.132 57.1392 91.336H59.6352C59.4792 90.376 58.4712 88.336 55.5552 88.336C52.9272 88.336 51.1152 90.184 51.1152 92.74C51.1152 95.296 52.9272 97.144 55.5552 97.144Z" fill="#EF3124"/>
<path d="M60.6565 90.592H63.7405V97H66.1885V90.592H69.2725V88.48H60.6565V90.592Z" fill="#EF3124"/>
<path d="M70.7992 97H78.6112V94.912H73.2592V93.604H76.1632V91.576H73.2592V90.46H78.1432V88.48H70.7992V97Z" fill="#EF3124"/>
<path d="M87.3824 97.144C90.4064 97.144 91.3184 94.948 91.4624 94.156H88.9784C88.8464 94.36 88.4144 94.948 87.3824 94.948C86.1704 94.948 85.4504 93.952 85.4504 92.74C85.4504 91.528 86.1704 90.532 87.3824 90.532C88.3904 90.532 88.8344 91.132 88.9664 91.336H91.4624C91.3064 90.376 90.2984 88.336 87.3824 88.336C84.7544 88.336 82.9424 90.184 82.9424 92.74C82.9424 95.296 84.7544 97.144 87.3824 97.144Z" fill="#EF3124"/>
<path d="M102.708 97H105.36L101.748 88.48H99.0957L95.4597 97H97.9557L98.4477 95.8H102.216L102.708 97ZM99.2877 93.784L100.332 91.24L101.376 93.784H99.2877Z" fill="#EF3124"/>
<path d="M110 90.616H112.58V97H115.04V88.48H107.924L107.42 93.28C107.324 94.264 107.072 94.66 106.256 94.66H106.076V97.12H106.268C108.812 97.12 109.448 95.908 109.7 93.448L110 90.616Z" fill="#EF3124"/>
<path d="M119.523 90.976V88.48H117.075V97H122.115C124.155 97 125.403 96.004 125.403 93.988C125.403 91.972 124.155 90.976 122.115 90.976H119.523ZM121.791 93.088C122.547 93.088 122.883 93.424 122.883 93.988C122.883 94.588 122.523 94.888 121.791 94.888H119.523V93.088H121.791Z" fill="#EF3124"/>
<path d="M131.591 95.704V97.12H134.039V95.704H135.779C137.843 95.704 139.079 94.636 139.079 92.656C139.079 90.64 137.843 89.608 135.791 89.608H134.039V88.36H131.591V89.608H129.839C127.787 89.608 126.551 90.64 126.551 92.656C126.551 94.636 127.787 95.704 129.851 95.704H131.591ZM131.591 93.592H130.151C129.431 93.592 129.083 93.232 129.083 92.656C129.083 91.996 129.419 91.72 130.151 91.72H131.591V93.592ZM135.479 91.72C136.211 91.72 136.547 91.996 136.547 92.656C136.547 93.232 136.199 93.592 135.479 93.592H134.039V91.72H135.479Z" fill="#EF3124"/>
<path d="M146.547 97H149.199L145.587 88.48H142.935L139.299 97H141.795L142.287 95.8H146.055L146.547 97ZM143.127 93.784L144.171 91.24L145.215 93.784H143.127Z" fill="#EF3124"/>
<path d="M150.056 94.432H154.172V92.272H150.056V94.432Z" fill="#EF3124"/>
<path d="M156.18 97H158.64L162.396 91.888V97H164.856V88.48H162.396L158.64 93.616V88.48H156.18V97Z" fill="#EF3124"/>
<path d="M172.992 97H175.452V88.48H172.992V91.672H169.356V88.48H166.896V97H169.356V93.808H172.992V97Z" fill="#EF3124"/>
<path d="M177.496 97H182.848C184.828 97 185.86 96.052 185.86 94.576C185.86 93.436 185.212 92.752 184.492 92.488C185.068 92.236 185.632 91.672 185.632 90.796C185.632 89.416 184.636 88.48 182.776 88.48H177.496V97ZM182.296 90.4C182.812 90.4 183.124 90.568 183.124 91.036C183.124 91.504 182.812 91.672 182.296 91.672H179.908V90.4H182.296ZM182.332 93.592C182.992 93.592 183.34 93.82 183.34 94.336C183.34 94.852 182.992 95.08 182.332 95.08H179.908V93.592H182.332Z" fill="#EF3124"/>
<path d="M187.509 97H195.321V94.912H189.969V93.604H192.873V91.576H189.969V90.46H194.853V88.48H187.509V97Z" fill="#EF3124"/>
<path d="M200.606 97.144C203.63 97.144 204.542 94.948 204.686 94.156H202.202C202.07 94.36 201.638 94.948 200.606 94.948C199.394 94.948 198.674 93.952 198.674 92.74C198.674 91.528 199.394 90.532 200.606 90.532C201.614 90.532 202.058 91.132 202.19 91.336H204.686C204.53 90.376 203.522 88.336 200.606 88.336C197.978 88.336 196.166 90.184 196.166 92.74C196.166 95.296 197.978 97.144 200.606 97.144Z" fill="#EF3124"/>
<path d="M205.707 90.592H208.791V97H211.239V90.592H214.323V88.48H205.707V90.592Z" fill="#EF3124"/>
<path d="M215.85 97H218.31L222.066 91.888V97H224.526V88.48H222.066L218.31 93.616V88.48H215.85V97Z" fill="#EF3124"/>
<path d="M232.543 94.864H229.027V88.48H226.567V97H233.983V98.944H236.203V94.864H235.003V88.48H232.543V94.864Z" fill="#EF3124"/>
<path d="M237.459 97H239.919L243.675 91.888V97H246.135V88.48H243.675L239.919 93.616V88.48H237.459V97Z" fill="#EF3124"/>
<path d="M248.176 97H250.636L254.392 91.888V97H256.852V88.48H254.392L250.636 93.616V88.48H248.176V97Z" fill="#EF3124"/>
<path d="M0.508057 34H6.67206L25.0721 9.62V34H31.2361V1.34H25.0721L6.67206 25.72V1.34H0.508057V34Z" fill="black"/>
<path d="M64.3679 34H70.5779V1.34H64.3679V14.818H46.4279V1.34H40.2639V34H46.4279V20.338H64.3679V34Z" fill="black"/>
<path d="M79.5256 34H97.2816C104.826 34 108.69 30.366 108.69 24.662C108.69 20.384 106.068 17.762 103.032 16.796C105.516 15.922 107.954 13.76 107.954 10.172C107.954 4.652 104.136 1.34 97.0056 1.34H79.5256V34ZM96.3156 6.584C99.8116 6.584 101.606 7.826 101.606 10.586C101.606 13.254 99.8576 14.588 96.3156 14.588H85.5976V6.584H96.3156ZM96.5456 19.786C100.456 19.786 102.388 21.258 102.388 24.248C102.388 27.192 100.548 28.756 96.5456 28.756H85.5976V19.786H96.5456Z" fill="black"/>
<path d="M116.047 34H144.337V28.526H122.211V19.51H134.309V14.128H122.211V6.67599H142.497V1.34H116.047V34Z" fill="black"/>
<path d="M163.964 34.552C174.452 34.552 178.454 27.376 179.19 23.926H172.934C172.106 25.628 169.622 28.894 163.964 28.894C157.846 28.894 153.89 23.788 153.89 17.67C153.89 11.552 157.846 6.446 163.964 6.446C169.208 6.446 171.876 9.66599 172.842 11.368H179.19C178.316 7.54999 174.038 0.787994 163.964 0.787994C154.396 0.787994 147.496 8.10199 147.496 17.67C147.496 27.238 154.396 34.552 163.964 34.552Z" fill="black"/>
<path d="M183.364 6.86H196.336V34H202.5V6.86H215.472V1.34H183.364V6.86Z" fill="black"/>
<path d="M217.416 23.006H232.734V17.578H217.416V23.006Z" fill="black"/>
<path d="M9.75406 42.34H0.508057V75H6.21206V48.458L17.0681 75.138H21.2541L32.2021 48.228V75H38.1821V42.34H29.3041L19.5061 66.122L9.75406 42.34Z" fill="black"/>
<path d="M72.437 75H79.015L64.295 42.202H58.453L43.779 75H49.989L52.979 68.284H69.447L72.437 75ZM55.325 62.948L61.213 49.746L67.101 62.948H55.325Z" fill="black"/>
<path d="M84.6467 75H90.8107V62.488H102.679C110.039 62.488 114.087 58.624 114.087 52.322C114.087 45.836 110.039 42.34 102.679 42.34H84.6467V75ZM102.357 47.86C106.037 47.86 107.739 49.47 107.739 52.414C107.739 55.174 105.991 56.968 102.357 56.968H90.8107V47.86H102.357Z" fill="black"/>
<path d="M142.83 75H149.408L134.688 42.202H128.846L114.172 75H120.382L123.372 68.284H139.84L142.83 75ZM125.718 62.948L131.606 49.746L137.494 62.948H125.718Z" fill="black"/>
<path d="M171.454 69.526V75.46H177.572V69.526H185.07C193.35 69.526 197.674 65.248 197.674 58.21C197.674 50.988 193.35 47.078 185.07 47.078H177.572V41.88H171.454V47.078H163.91C155.676 47.078 151.306 50.988 151.306 58.21C151.306 65.248 155.676 69.526 163.956 69.526H171.454ZM171.454 64.006H164.232C159.816 64.006 157.654 61.752 157.654 58.302C157.654 54.576 159.816 52.552 164.232 52.552H171.454V64.006ZM184.748 52.552C189.21 52.552 191.326 54.576 191.326 58.302C191.326 61.752 189.164 64.006 184.748 64.006H177.572V52.552H184.748Z" fill="black"/>
<path d="M220.222 75.552C229.928 75.552 237.334 68.422 237.334 58.67C237.334 48.872 229.928 41.788 220.222 41.788C210.516 41.788 203.11 48.872 203.11 58.67C203.11 68.468 210.424 75.552 220.222 75.552ZM220.222 69.94C213.69 69.94 209.458 64.972 209.458 58.67C209.458 52.46 213.736 47.4 220.222 47.4C226.708 47.4 231.032 52.46 231.032 58.67C231.032 64.926 226.708 69.94 220.222 69.94Z" fill="black"/>
<path d="M268.718 75H274.928V42.34H268.718V55.818H250.778V42.34H244.614V75H250.778V61.338H268.718V75Z" fill="black"/>
<rect x="10.9318" y="87.1014" width="2.0857" height="10.8456" transform="rotate(90 10.9318 87.1014)" fill="black"/>
<rect x="8.58948" y="87.9357" width="2.0857" height="12.1473" transform="rotate(45 8.58948 87.9357)" fill="black"/>
<rect x="8.84607" y="87.1014" width="2.0857" height="10.8456" fill="black"/>
<rect x="276.932" y="87.1014" width="2.0857" height="10.8456" transform="rotate(90 276.932 87.1014)" fill="black"/>
<rect x="274.589" y="87.9357" width="2.0857" height="12.1473" transform="rotate(45 274.589 87.9357)" fill="black"/>
<rect x="274.846" y="87.1014" width="2.0857" height="10.8456" fill="black"/>
</svg>
