<svg width="284" height="46" viewBox="0 0 284 46" fill="none" xmlns="http://www.w3.org/2000/svg">
<path d="M31.5976 32.9224C31.5976 26.0636 27.4095 23.0287 24.1925 22.0575C26.8025 20.9043 30.2016 18.0515 30.2016 12.7101C30.2016 5.85123 25.103 0.874023 16.059 0.874023C6.6509 0.874023 2.40206 7.12589 2.09857 12.6494H7.92555C8.59322 9.00752 11.0211 6.15472 16.1197 6.15472C20.9755 6.15472 24.3746 8.64333 24.3746 12.9529C24.3746 17.3231 21.6432 19.751 17.0302 19.751H9.26089V25.0924H16.8481C22.4323 25.0924 25.6493 27.7024 25.6493 32.5582C25.6493 37.3533 22.0074 40.0847 16.2411 40.0847C10.3535 40.0847 7.43996 36.625 6.83299 33.2866H0.945312C1.43089 39.1743 6.04392 45.4261 16.2411 45.4261C25.9528 45.4261 31.5976 40.3882 31.5976 32.9224Z" fill="#DCAD59"/>
<path d="M56.9451 0.874023C47.8404 0.874023 41.8921 6.701 41.8921 16.5947V29.7054C41.8921 40.0847 48.0225 45.4261 56.9451 45.4261C65.8676 45.4261 71.9981 40.0847 71.9981 29.7054V16.5947C71.9981 6.701 66.0497 0.874023 56.9451 0.874023ZM56.9451 40.0847C50.8146 40.0847 47.719 35.6538 47.719 29.6447V16.6554C47.719 10.6464 50.8146 6.21542 56.9451 6.21542C63.0755 6.21542 66.1711 10.6464 66.1711 16.6554V29.6447C66.1711 35.6538 63.0755 40.0847 56.9451 40.0847Z" fill="#DCAD59"/>
<path d="M115.035 0.874023C105.93 0.874023 99.9816 6.701 99.9816 16.5947V29.7054C99.9816 40.0847 106.112 45.4261 115.035 45.4261C123.957 45.4261 130.088 40.0847 130.088 29.7054V16.5947C130.088 6.701 124.139 0.874023 115.035 0.874023ZM115.035 40.0847C108.904 40.0847 105.809 35.6538 105.809 29.6447V16.6554C105.809 10.6464 108.904 6.21542 115.035 6.21542C121.165 6.21542 124.261 10.6464 124.261 16.6554V29.6447C124.261 35.6538 121.165 40.0847 115.035 40.0847Z" fill="#DCAD59"/>
<path d="M157.061 0.874023C147.956 0.874023 142.008 6.701 142.008 16.5947V29.7054C142.008 40.0847 148.138 45.4261 157.061 45.4261C165.983 45.4261 172.114 40.0847 172.114 29.7054V16.5947C172.114 6.701 166.165 0.874023 157.061 0.874023ZM157.061 40.0847C150.93 40.0847 147.835 35.6538 147.835 29.6447V16.6554C147.835 10.6464 150.93 6.21542 157.061 6.21542C163.191 6.21542 166.287 10.6464 166.287 16.6554V29.6447C166.287 35.6538 163.191 40.0847 157.061 40.0847Z" fill="#DCAD59"/>
<path d="M199.087 0.874023C189.982 0.874023 184.034 6.701 184.034 16.5947V29.7054C184.034 40.0847 190.164 45.4261 199.087 45.4261C208.009 45.4261 214.14 40.0847 214.14 29.7054V16.5947C214.14 6.701 208.191 0.874023 199.087 0.874023ZM199.087 40.0847C192.956 40.0847 189.861 35.6538 189.861 29.6447V16.6554C189.861 10.6464 192.956 6.21542 199.087 6.21542C205.217 6.21542 208.313 10.6464 208.313 16.6554V29.6447C208.313 35.6538 205.217 40.0847 199.087 40.0847Z" fill="#DCAD59"/>
<path d="M237.996 36.2608H246.736V44.6977H252.624V36.2608H274.111V31.5264H252.624V26.0029H269.012C278.42 26.0029 283.337 21.0257 283.337 13.6812C283.337 6.09403 278.481 1.6024 269.012 1.6024H246.736V21.2684H237.996V26.0029H246.736V31.5264H237.996V36.2608ZM269.194 7.06519C274.597 7.06519 277.267 9.49309 277.267 13.8026C277.267 18.1729 274.597 21.1471 269.194 21.1471H252.624V7.06519H269.194Z" fill="#DCAD59"/>
</svg>
