<svg width="290" height="30" viewBox="0 0 290 30" fill="none" xmlns="http://www.w3.org/2000/svg">
<path d="M0.309082 28.7951H4.10894V4.50732H20.797V28.7951H24.5968V0.981683H0.309082V28.7951Z" fill="white"/>
<path d="M33.2089 28.7951H37.0088V17.1996H47.664C53.8143 17.1996 57.0266 13.909 57.0266 9.01231C57.0266 3.88054 53.8143 0.981683 47.664 0.981683H33.2089V28.7951ZM47.7816 4.50732C51.3856 4.50732 53.1092 6.15262 53.1092 9.09065C53.1092 11.7545 51.3856 13.674 47.7816 13.674H37.0088V4.50732H47.7816Z" fill="white"/>
<path d="M76.4693 29.2651C84.6566 29.2651 90.8461 23.0365 90.8461 14.8884C90.8461 6.74023 84.6566 0.511597 76.4693 0.511597C68.2428 0.511597 62.0925 6.74023 62.0925 14.8884C62.0925 23.0757 68.1645 29.2651 76.4693 29.2651ZM76.4693 25.7395C70.2015 25.7395 66.0099 20.9603 66.0099 14.8884C66.0099 8.93396 70.2015 4.03724 76.4693 4.03724C82.7371 4.03724 86.9287 8.97313 86.9287 14.8884C86.9287 20.8428 82.7371 25.7395 76.4693 25.7395Z" fill="white"/>
<path d="M97.8609 28.7951H101.661V4.5465H120.151V0.981683H97.8609V28.7951Z" fill="white"/>
<path d="M125.635 28.7951H129.434V17.1996H140.09C146.24 17.1996 149.452 13.909 149.452 9.01231C149.452 3.88054 146.24 0.981683 140.09 0.981683H125.635V28.7951ZM140.207 4.50732C143.811 4.50732 145.535 6.15262 145.535 9.09065C145.535 11.7545 143.811 13.674 140.207 13.674H129.434V4.50732H140.207Z" fill="white"/>
<path d="M174.92 28.7951H178.916L166.028 0.824988H163.011L150.162 28.7951H153.923L157.018 22.0963H171.825L174.92 28.7951ZM158.585 18.6491L164.421 5.95675L170.258 18.6491H158.585Z" fill="white"/>
<path d="M190.386 0.981683H184.51V28.7951H188.036V4.42897L198.573 28.9518H201.198L211.814 4.27228V28.7951H215.418V0.981683H209.738L200.062 23.5458L190.386 0.981683Z" fill="white"/>
<path d="M229.904 0.981683H224.028V28.7951H227.554V4.42897L238.091 28.9518H240.716L251.332 4.27228V28.7951H254.936V0.981683H249.256L239.58 23.5458L229.904 0.981683Z" fill="white"/>
<path d="M285.288 28.7951H289.283L276.395 0.824988H273.379L260.53 28.7951H264.29L267.385 22.0963H282.193L285.288 28.7951ZM268.952 18.6491L274.789 5.95675L280.626 18.6491H268.952Z" fill="white"/>
</svg>
