<svg width="258" height="78" viewBox="0 0 258 78" fill="none" xmlns="http://www.w3.org/2000/svg">
<path d="M0.839966 17.1082H4.87197V21.0002H7.58797V17.1082H17.5V14.9242H7.58797V12.3762H15.148C19.488 12.3762 21.756 10.0802 21.756 6.69218C21.756 3.19218 19.516 1.12018 15.148 1.12018H4.87197V10.1922H0.839966V12.3762H4.87197V14.9242H0.839966V17.1082ZM15.232 3.64018C17.724 3.64018 18.956 4.76018 18.956 6.74818C18.956 8.76418 17.724 10.1362 15.232 10.1362H7.58797V3.64018H15.232Z" fill="#EF3124"/>
<path d="M26.5136 21.0002H43.2016V18.4802H29.2016V11.7042H36.9016V9.18418H29.2016V3.64018H42.0816V1.12018H26.5136V21.0002Z" fill="#EF3124"/>
<path d="M55.0528 0.78418C48.9488 0.78418 46.5408 4.22818 46.0088 6.58018H48.8648C49.6208 4.98418 51.4968 3.33218 55.0248 3.33218C58.8608 3.33218 60.5128 4.48018 60.5128 6.38418C60.5128 8.54018 59.0288 9.63218 56.0328 9.63218H53.0088V12.1242H55.9208C59.3928 12.1242 60.9888 13.2162 60.9888 15.1202C60.9888 17.3882 59.0008 18.7882 55.1648 18.7882C51.3008 18.7882 49.2848 16.9122 48.7808 15.2882H45.9808C46.3448 18.0602 49.2288 21.3362 55.1928 21.3362C60.6528 21.3362 63.7608 18.9282 63.7608 15.0922C63.7608 12.7402 62.0808 11.2562 60.1488 10.7242C61.7448 10.2762 63.3128 8.68018 63.3128 6.24418C63.3128 3.02418 60.5408 0.78418 55.0528 0.78418Z" fill="#EF3124"/>
<path d="M73.2633 21.0002L86.0593 1.12018H83.2593L75.9793 12.4322L68.5313 1.12018H65.3953L74.4393 14.8122L70.4633 21.0002H73.2633Z" fill="#EF3124"/>
<path d="M93.4937 3.64018H103.014V21.0002H105.73V1.12018H91.1417L90.0777 12.5162C89.6297 16.9402 89.0137 18.5082 86.6897 18.5082H86.2137V21.1682H86.8857C91.0297 21.1682 92.0937 18.3682 92.6257 12.8242L93.4937 3.64018Z" fill="#EF3124"/>
<path d="M114.597 8.62418V1.12018H111.881V21.0002H121.905C126.581 21.0002 128.933 18.7602 128.933 14.8682C128.933 11.1442 126.525 8.62418 121.905 8.62418H114.597ZM121.989 11.1442C124.789 11.1442 126.133 12.6562 126.133 14.8122C126.133 17.1642 124.789 18.4802 121.989 18.4802H114.597V11.1442H121.989Z" fill="#EF3124"/>
<path d="M130.347 3.64018H138.607V21.0002H141.323V3.64018H149.583V1.12018H130.347V3.64018Z" fill="#EF3124"/>
<path d="M167.069 21.0002H169.925L160.713 1.00818H158.557L149.373 21.0002H152.061L154.273 16.2122H164.857L167.069 21.0002ZM155.393 13.7482L159.565 4.67618L163.737 13.7482H155.393Z" fill="#EF3124"/>
<path d="M169.722 3.64018H177.982V21.0002H180.698V3.64018H188.958V1.12018H169.722V3.64018Z" fill="#EF3124"/>
<path d="M3.07997 49.0002H5.79597V31.6402H17.724V49.0002H20.44V29.1202H3.07997V49.0002Z" fill="#EF3124"/>
<path d="M35.7236 49.3362C41.5756 49.3362 45.9996 44.8842 45.9996 39.0602C45.9996 33.2362 41.5756 28.7842 35.7236 28.7842C29.8436 28.7842 25.4476 33.2362 25.4476 39.0602C25.4476 44.9122 29.7876 49.3362 35.7236 49.3362ZM35.7236 46.8162C31.2436 46.8162 28.2476 43.4002 28.2476 39.0602C28.2476 34.8042 31.2436 31.3042 35.7236 31.3042C40.2036 31.3042 43.1996 34.8322 43.1996 39.0602C43.1996 43.3162 40.2036 46.8162 35.7236 46.8162Z" fill="#EF3124"/>
<path d="M59.6936 49.3362C65.7696 49.3362 68.2616 45.3882 68.8496 43.1482H66.0776C65.4056 44.4082 63.7256 46.7882 59.6936 46.7882C55.4376 46.7882 52.6936 43.2322 52.6936 39.0602C52.6936 34.8882 55.4376 31.3322 59.6936 31.3322C63.2776 31.3322 65.3496 33.5162 66.0216 34.9442H68.8496C68.1776 32.5642 65.5176 28.7842 59.6936 28.7842C54.0376 28.7842 49.8656 33.3202 49.8656 39.0602C49.8656 44.8002 54.0096 49.3362 59.6936 49.3362Z" fill="#EF3124"/>
<path d="M78.9742 31.6402H88.4942V49.0002H91.2102V29.1202H76.6222L75.5582 40.5162C75.1102 44.9402 74.4942 46.5082 72.1702 46.5082H71.6942V49.1682H72.3662C76.5102 49.1682 77.5742 46.3682 78.1062 40.8242L78.9742 31.6402Z" fill="#EF3124"/>
<path d="M97.3612 49.0002H114.049V46.4802H100.049V39.7042H107.749V37.1842H100.049V31.6402H112.929V29.1202H97.3612V49.0002Z" fill="#EF3124"/>
<path d="M140.668 49.0002H143.384V29.1202H140.668V37.7162H128.46V29.1202H125.744V49.0002H128.46V40.2362H140.668V49.0002Z" fill="#EF3124"/>
<path d="M149.533 49.0002H166.221V46.4802H152.221V39.7042H159.921V37.1842H152.221V31.6402H165.101V29.1202H149.533V49.0002Z" fill="#EF3124"/>
<path d="M184.916 46.4802H173.184C173.828 45.2482 174.248 43.0362 174.556 40.4322L175.48 31.6402H184.916V46.4802ZM173.156 29.1202L171.98 40.2362C171.672 42.9242 171.196 45.1642 170.328 46.4802H168.116V53.5082H170.552V49.0002H188.276V53.5082H190.712V46.4802H187.632V29.1202H173.156Z" fill="#EF3124"/>
<path d="M194.35 49.0002H211.038V46.4802H197.038V39.7042H204.738V37.1842H197.038V31.6402H209.917V29.1202H194.35V49.0002Z" fill="#EF3124"/>
<path d="M220.779 31.6402H230.299V49.0002H233.015V29.1202H218.427L217.363 40.5162C216.915 44.9402 216.299 46.5082 213.975 46.5082H213.499V49.1682H214.171C218.315 49.1682 219.379 46.3682 219.911 40.8242L220.779 31.6402Z" fill="#EF3124"/>
<path d="M239.166 49.0002H241.882L254.342 32.7042V49.0002H257.058V29.1202H254.342L241.882 45.3602V29.1202H239.166V49.0002Z" fill="#EF3124"/>
<path d="M12.208 77.3362C18.06 77.3362 22.484 72.8842 22.484 67.0602C22.484 61.2362 18.06 56.7842 12.208 56.7842C6.32797 56.7842 1.93197 61.2362 1.93197 67.0602C1.93197 72.9122 6.27197 77.3362 12.208 77.3362ZM12.208 74.8162C7.72797 74.8162 4.73197 71.4002 4.73197 67.0602C4.73197 62.8042 7.72797 59.3042 12.208 59.3042C16.688 59.3042 19.684 62.8322 19.684 67.0602C19.684 71.3162 16.688 74.8162 12.208 74.8162Z" fill="#EF3124"/>
<path d="M30.2139 65.2402V59.6682H42.7859V57.1202H27.4979V77.0002H37.2979C41.9739 77.0002 44.3259 74.9002 44.3259 71.2042C44.3259 67.6482 41.9179 65.2402 37.2979 65.2402H30.2139ZM37.3819 67.7602C40.1819 67.7602 41.5259 69.1322 41.5259 71.1482C41.5259 73.2762 40.1819 74.4802 37.3819 74.4802H30.2139V67.7602H37.3819Z" fill="#EF3124"/>
<path d="M53.8766 77.0002L66.6726 57.1202H63.8726L56.5926 68.4322L49.1446 57.1202H46.0086L55.0526 70.8122L51.0766 77.0002H53.8766Z" fill="#EF3124"/>
<path d="M84.0415 77.0002H86.7575V57.1202H84.0415V66.2482C83.3975 66.3882 82.7255 66.5282 81.9975 66.6122C80.7655 66.8082 79.1415 66.9482 77.3775 66.9482C73.9615 66.9482 72.3375 65.6322 72.3375 61.9362V57.1202H69.6215V62.0202C69.6215 67.2842 72.2255 69.3562 77.4055 69.3562C79.1975 69.3562 80.8495 69.2162 82.0535 69.0202C82.7535 68.9362 83.4255 68.7962 84.0415 68.6562V77.0002Z" fill="#EF3124"/>
<path d="M92.9042 77.0002H109.592V74.4802H95.5922V67.7042H103.292V65.1842H95.5922V59.6402H108.472V57.1202H92.9042V77.0002Z" fill="#EF3124"/>
<path d="M128.801 77.0002H131.517V57.1202H128.801V65.7162H116.593V57.1202H113.877V77.0002H116.593V68.2362H128.801V77.0002Z" fill="#EF3124"/>
<path d="M137.666 77.0002H140.382L152.842 60.7042V77.0002H155.558V57.1202H152.842L140.382 73.3602V57.1202H137.666V77.0002Z" fill="#EF3124"/>
<path d="M163.464 77.0002L168.42 68.9922H175.616V77.0002H178.332V57.1202H167.86C163.492 57.1202 161.224 59.1642 161.224 63.1682C161.224 66.0802 162.764 67.9842 165.676 68.6282L160.468 77.0002H163.464ZM167.944 66.5002C165.34 66.5002 164.024 65.4922 164.024 63.1682C164.024 60.7042 165.34 59.6402 167.944 59.6402H175.616V66.5002H167.944Z" fill="#EF3124"/>
<path d="M184.03 77.0002H187.278V73.0242H184.03V77.0002ZM184.03 67.3962H187.278V63.4202H184.03V67.3962Z" fill="#EF3124"/>
</svg>
