<svg width="87" height="46" viewBox="0 0 87 46" fill="none" xmlns="http://www.w3.org/2000/svg">
<path d="M86.3159 4.39428L63.9814 34.2771C62.1511 36.726 58.888 37.6177 56.1935 36.4052L45.5174 31.6012L33.8677 26.3552L44.3574 21.963L45.2351 21.5972L86.3159 4.39428Z" fill="white"/>
<path d="M86.3163 4.23671L26.1035 22.591L8.23816 18.3403C6.90572 18.0233 7.06664 16.0909 8.44262 15.8851L86.3163 4.23671Z" fill="white"/>
<path d="M45.4915 31.3574L32.3837 39.8745L33.8918 26.1289L45.4915 31.3574Z" fill="#AF956E"/>
<path d="M86.3157 4.34407L33.8743 26.3016L32.6725 39.9015C32.6111 40.5965 31.6287 40.7292 31.4399 40.068L26.4049 22.4423L86.3157 4.34407Z" fill="#F5D39B"/>
</svg>
