<svg width="286" height="130" viewBox="0 0 286 130" fill="none" xmlns="http://www.w3.org/2000/svg">
<path d="M31.2046 21.0001H35.0434V4.09791H45.9296V21.0001H49.7684V0.660181H31.2046V21.0001Z" fill="black"/>
<path d="M64.6581 21.3439C70.7027 21.3439 75.315 16.9035 75.315 10.8301C75.315 4.72817 70.7027 0.316406 64.6581 0.316406C58.6134 0.316406 54.0011 4.72817 54.0011 10.8301C54.0011 16.9321 58.5561 21.3439 64.6581 21.3439ZM64.6581 17.8489C60.5901 17.8489 57.9545 14.7549 57.9545 10.8301C57.9545 6.96269 60.6187 3.81144 64.6581 3.81144C68.6974 3.81144 71.3903 6.96269 71.3903 10.8301C71.3903 14.7262 68.6974 17.8489 64.6581 17.8489Z" fill="black"/>
<path d="M85.4738 4.09791H94.0108V21.0001H97.8497V0.660181H82.208L81.0907 12.2625C80.7183 16.044 80.088 17.4191 77.8535 17.4191H77.3951V21.2006H77.9967C82.9242 21.2006 84.0701 18.3645 84.6717 12.6063L85.4738 4.09791Z" fill="black"/>
<path d="M103.168 21.0001H107.006L118.466 5.81678V21.0001H122.304V0.660181H118.466L107.006 15.8435V0.660181H103.168V21.0001Z" fill="black"/>
<path d="M125.893 4.09791H133.971V21.0001H137.81V4.09791H145.889V0.660181H125.893V4.09791Z" fill="black"/>
<path d="M149.483 21.0001H153.322L164.781 5.81678V21.0001H168.62V0.660181H164.781L153.322 15.8435V0.660181H149.483V21.0001Z" fill="black"/>
<path d="M173.956 21.0001H177.794V11.6896L188.566 21.0001H193.923L182.063 10.5437L193.436 0.660181H188.28L177.794 9.79883V0.660181H173.956V21.0001Z" fill="black"/>
<path d="M212.254 21.0001H216.351L207.183 0.574236H203.545L194.407 21.0001H198.274L200.136 16.8175H210.392L212.254 21.0001ZM201.597 13.4944L205.264 5.27248L208.931 13.4944H201.597Z" fill="black"/>
<path d="M2.80749 47.0001H13.8655C18.5638 47.0001 20.9702 44.7369 20.9702 41.1846C20.9702 38.5204 19.3373 36.8874 17.4465 36.2858C18.9935 35.7415 20.5118 34.3951 20.5118 32.1606C20.5118 28.7228 18.1341 26.6602 13.6936 26.6602H2.80749V47.0001ZM13.2639 29.926C15.4412 29.926 16.5584 30.6995 16.5584 32.4184C16.5584 34.08 15.4698 34.9107 13.2639 34.9107H6.589V29.926H13.2639ZM13.4072 38.1479C15.8422 38.1479 17.0454 39.0647 17.0454 40.9268C17.0454 42.7602 15.8995 43.7343 13.4072 43.7343H6.589V38.1479H13.4072Z" fill="black"/>
<path d="M41.9334 47.3439C47.9781 47.3439 52.5904 42.9035 52.5904 36.8301C52.5904 30.7282 47.9781 26.3164 41.9334 26.3164C35.8887 26.3164 31.2764 30.7282 31.2764 36.8301C31.2764 42.9321 35.8314 47.3439 41.9334 47.3439ZM41.9334 43.8489C37.8654 43.8489 35.2298 40.7549 35.2298 36.8301C35.2298 32.9627 37.8941 29.8114 41.9334 29.8114C45.9728 29.8114 48.6657 32.9627 48.6657 36.8301C48.6657 40.7262 45.9728 43.8489 41.9334 43.8489Z" fill="black"/>
<path d="M54.3628 30.0979H62.4414V47.0001H66.2802V30.0979H74.3589V26.6602H54.3628V30.0979Z" fill="black"/>
<path d="M92.9645 47.0001H96.832V26.6602H92.9645V35.054H81.7919V26.6602H77.9531V47.0001H81.7919V38.4917H92.9645V47.0001Z" fill="black"/>
<path d="M111.686 47.3439C117.731 47.3439 122.343 42.9035 122.343 36.8301C122.343 30.7282 117.731 26.3164 111.686 26.3164C105.642 26.3164 101.029 30.7282 101.029 36.8301C101.029 42.9321 105.584 47.3439 111.686 47.3439ZM111.686 43.8489C107.618 43.8489 104.983 40.7549 104.983 36.8301C104.983 32.9627 107.647 29.8114 111.686 29.8114C115.726 29.8114 118.419 32.9627 118.419 36.8301C118.419 40.7262 115.726 43.8489 111.686 43.8489Z" fill="black"/>
<path d="M126.591 26.6602V47.0001H154.98V26.6602H151.142V43.5624H142.719V26.6602H138.88V43.5624H130.429V26.6602H126.591Z" fill="black"/>
<path d="M160.295 47.0001H177.914V43.591H164.134V37.9761H171.669V34.6243H164.134V29.9833H176.768V26.6602H160.295V47.0001Z" fill="black"/>
<path d="M196.562 47.0001H200.43V26.6602H196.562V35.054H185.389V26.6602H181.551V47.0001H185.389V38.4917H196.562V47.0001Z" fill="black"/>
<path d="M205.715 47.0001H209.554L221.013 31.8168V47.0001H224.852V26.6602H221.013L209.554 41.8435V26.6602H205.715V47.0001Z" fill="black"/>
<path d="M230.188 47.0001H234.027L245.486 31.8168V47.0001H249.325V26.6602H245.486L234.027 41.8435V26.6602H230.188V47.0001Z" fill="black"/>
<path d="M12.3758 73.3439C18.4205 73.3439 23.0328 68.9035 23.0328 62.8301C23.0328 56.7282 18.4205 52.3164 12.3758 52.3164C6.33117 52.3164 1.71887 56.7282 1.71887 62.8301C1.71887 68.9321 6.27387 73.3439 12.3758 73.3439ZM12.3758 69.8488C8.30786 69.8488 5.67227 66.7549 5.67227 62.8301C5.67227 58.9627 8.33651 55.8114 12.3758 55.8114C16.4152 55.8114 19.1081 58.9627 19.1081 62.8301C19.1081 66.7262 16.4152 69.8488 12.3758 69.8488Z" fill="black"/>
<path d="M31.1189 60.7102V56.0979H43.7526V52.6602H27.2801V73.0001H38.023C42.8072 73.0001 45.4141 70.8515 45.4141 66.8408C45.4141 63.0307 42.8072 60.7102 38.023 60.7102H31.1189ZM37.9371 63.9761C40.3148 63.9761 41.4607 65.0933 41.4607 66.7835C41.4607 68.617 40.3148 69.591 37.9371 69.591H31.1189V63.9761H37.9371Z" fill="black"/>
<path d="M49.6824 73.0001H53.5212V65.2079H60.9124C65.496 65.2079 68.017 62.8015 68.017 58.8768C68.017 54.8374 65.496 52.6602 60.9124 52.6602H49.6824V73.0001ZM60.7118 56.0979C63.0036 56.0979 64.0636 57.1006 64.0636 58.934C64.0636 60.6529 62.975 61.7702 60.7118 61.7702H53.5212V56.0979H60.7118Z" fill="black"/>
<path d="M85.6309 73.0001H89.7276L80.5603 52.5742H76.922L67.7834 73.0001H71.6508L73.5129 68.8175H83.7688L85.6309 73.0001ZM74.974 65.4944L78.6409 57.2725L82.3078 65.4944H74.974Z" fill="black"/>
<path d="M96.7872 60.7102V56.0979H109.421V52.6602H92.9484V73.0001H103.691C108.476 73.0001 111.082 70.8515 111.082 66.8408C111.082 63.0307 108.476 60.7102 103.691 60.7102H96.7872ZM103.605 63.9761C105.983 63.9761 107.129 65.0933 107.129 66.7835C107.129 68.617 105.983 69.591 103.605 69.591H96.7872V63.9761H103.605Z" fill="black"/>
<path d="M124.919 73.3439C130.964 73.3439 135.576 68.9035 135.576 62.8301C135.576 56.7282 130.964 52.3164 124.919 52.3164C118.874 52.3164 114.262 56.7282 114.262 62.8301C114.262 68.9321 118.817 73.3439 124.919 73.3439ZM124.919 69.8488C120.851 69.8488 118.216 66.7549 118.216 62.8301C118.216 58.9627 120.88 55.8114 124.919 55.8114C128.958 55.8114 131.651 58.9627 131.651 62.8301C131.651 66.7262 128.958 69.8488 124.919 69.8488Z" fill="black"/>
<path d="M137.348 56.0979H145.427V73.0001H149.266V56.0979H157.345V52.6602H137.348V56.0979Z" fill="black"/>
<path d="M160.939 73.0001H164.778V63.6896L175.549 73.0001H180.906L169.046 62.5437L180.419 52.6602H175.263L164.778 61.7988V52.6602H160.939V73.0001Z" fill="black"/>
<path d="M183.481 73.0001H187.32L198.779 57.8168V73.0001H202.618V52.6602H198.779L187.32 67.8435V52.6602H183.481V73.0001Z" fill="black"/>
<path d="M2.80749 99.0001H6.64629V82.0979H17.5325V99.0001H21.3713V78.6602H2.80749V99.0001Z" fill="black"/>
<path d="M26.6926 99.0001H44.311V95.591H30.5314V89.9761H38.0658V86.6243H30.5314V81.9833H43.1651V78.6602H26.6926V99.0001Z" fill="black"/>
<path d="M47.9479 99.0001H51.7867V91.2079H59.1778C63.7615 91.2079 66.2825 88.8015 66.2825 84.8767C66.2825 80.8374 63.7615 78.6602 59.1778 78.6602H47.9479V99.0001ZM58.9773 82.0979C61.2691 82.0979 62.3291 83.1006 62.3291 84.934C62.3291 86.6529 61.2405 87.7702 58.9773 87.7702H51.7867V82.0979H58.9773Z" fill="black"/>
<path d="M79.4616 99.3439C85.9933 99.3439 88.4856 94.8748 88.944 92.7262H85.0479C84.5322 93.7862 82.9853 95.8202 79.4616 95.8202C75.6514 95.8202 73.1877 92.6403 73.1877 88.8301C73.1877 85.02 75.6514 81.8401 79.4616 81.8401C82.7274 81.8401 84.389 83.8454 84.9906 84.9054H88.944C88.3997 82.5276 85.7355 78.3164 79.4616 78.3164C73.5028 78.3164 69.2057 82.8714 69.2057 88.8301C69.2057 94.7889 73.5028 99.3439 79.4616 99.3439Z" fill="black"/>
<path d="M102.293 99.3439C108.338 99.3439 112.95 94.9035 112.95 88.8301C112.95 82.7282 108.338 78.3164 102.293 78.3164C96.2483 78.3164 91.636 82.7282 91.636 88.8301C91.636 94.9321 96.191 99.3439 102.293 99.3439ZM102.293 95.8488C98.225 95.8488 95.5894 92.7549 95.5894 88.8301C95.5894 84.9627 98.2536 81.8114 102.293 81.8114C106.332 81.8114 109.025 84.9627 109.025 88.8301C109.025 92.7262 106.332 95.8488 102.293 95.8488Z" fill="black"/>
<path d="M132.209 99.0001H136.076V78.6602H132.209V87.054H121.036V78.6602H117.197V99.0001H121.036V90.4917H132.209V99.0001Z" fill="black"/>
<path d="M157.118 99.0001H161.215L152.048 78.5742H148.409L139.271 99.0001H143.138L145 94.8175H155.256L157.118 99.0001ZM146.461 91.4944L150.128 83.2725L153.795 91.4944H146.461Z" fill="black"/>
<path d="M170.767 82.0979H179.304V99.0001H183.143V78.6602H167.501L166.384 90.2625C166.011 94.044 165.381 95.4191 163.147 95.4191H162.688V99.2006H163.29C168.217 99.2006 169.363 96.3645 169.965 90.6063L170.767 82.0979Z" fill="black"/>
<path d="M192.3 85.7362V78.6602H188.461V99.0001H199.318C204.131 99.0001 206.738 96.6796 206.738 92.4111C206.738 88.2572 204.131 85.7362 199.318 85.7362H192.3ZM199.118 89.1739C201.61 89.1739 202.785 90.4344 202.785 92.3825C202.785 94.4451 201.61 95.591 199.118 95.591H192.3V89.1739H199.118Z" fill="black"/>
<path d="M225.791 99.0001H229.658V78.6602H225.791V87.054H214.618V78.6602H210.779V99.0001H214.618V90.4917H225.791V99.0001Z" fill="black"/>
<path d="M238.783 85.7362V78.6602H234.944V99.0001H245.802C250.614 99.0001 253.221 96.6796 253.221 92.4111C253.221 88.2572 250.614 85.7362 245.802 85.7362H238.783ZM245.601 89.1739C248.093 89.1739 249.268 90.4344 249.268 92.3825C249.268 94.4451 248.093 95.591 245.601 95.591H238.783V89.1739H245.601ZM256.086 99.0001H259.954V78.6602H256.086V99.0001Z" fill="black"/>
<path d="M280.733 99.0001H285.574L276.694 88.515L285.202 78.6602H280.561L274.43 85.8221L268.386 78.6602H263.344L271.938 88.7156L263.114 99.0001H267.641L274.23 91.3798L280.733 99.0001Z" fill="black"/>
<path d="M16.8449 121.562H6.27387C6.93277 120.302 7.39113 118.325 7.70626 115.374L8.5084 108.098H16.8449V121.562ZM5.2712 104.66L4.12529 115.174C3.78151 118.182 3.20856 120.302 2.43507 121.562H0.229187V129.612H3.69557V125H20.2826V129.612H23.7204V121.562H20.6837V104.66H5.2712Z" fill="black"/>
<path d="M43.2042 125H47.3009L38.1336 104.574H34.4953L25.3567 125H29.2241L31.0862 120.818H41.3421L43.2042 125ZM32.5472 117.494L36.2142 109.272L39.8811 117.494H32.5472Z" fill="black"/>
<path d="M65.5332 125H69.4006V104.66H65.5332V113.054H54.3605V104.66H50.5217V125H54.3605V116.492H65.5332V125Z" fill="black"/>
<path d="M89.698 125H93.5655V104.66H89.698V113.054H78.5254V104.66H74.6866V125H78.5254V116.492H89.698V125Z" fill="black"/>
<path d="M102.69 111.736V104.66H98.8514V125H109.709C114.522 125 117.129 122.68 117.129 118.411C117.129 114.257 114.522 111.736 109.709 111.736H102.69ZM109.508 115.174C112.001 115.174 113.175 116.434 113.175 118.382C113.175 120.445 112.001 121.591 109.508 121.591H102.69V115.174H109.508ZM119.994 125H123.861V104.66H119.994V125Z" fill="black"/>
<path d="M144.64 125H149.482L140.601 114.515L149.109 104.66H144.468L138.338 111.822L132.293 104.66H127.251L135.845 114.716L127.022 125H131.548L138.137 117.38L144.64 125Z" fill="black"/>
<path d="M23.1913 1L23.1913 4.85234L3.1591 4.85234L3.1591 0.999999L23.1913 1Z" fill="#EF3124"/>
<path d="M18.865 2.54102L21.589 5.26503L5.724 21.13L2.99998 18.406L18.865 2.54102Z" fill="#EF3124"/>
<path d="M19.3391 1L23.1914 1L23.1914 21.0322L19.3391 21.0322L19.3391 1Z" fill="#EF3124"/>
<path d="M174.191 105L174.191 108.852L154.159 108.852L154.159 105L174.191 105Z" fill="#EF3124"/>
<path d="M169.865 106.541L172.589 109.265L156.724 125.13L154 122.406L169.865 106.541Z" fill="#EF3124"/>
<path d="M170.339 105H174.191L174.191 125.032H170.339L170.339 105Z" fill="#EF3124"/>
</svg>
